<svg width="584" height="426" viewBox="0 0 584 426" fill="none" xmlns="http://www.w3.org/2000/svg">
<g clip-path="url(#clip0_1_5)">
<path d="M476.38 97.4976C488.999 92.5213 501.463 87.6016 514.155 82.593C513.314 79.4748 512.329 76.4454 511.691 73.3514C510.552 67.8097 511.788 65.7093 517.249 64.0371C519.535 63.3343 521.982 62.8657 524.366 62.8334C535.538 62.6799 546.71 62.6476 557.883 62.7122C563.651 62.7445 565.339 65.5073 562.487 70.3947C559.442 75.6133 556.025 80.6138 552.745 85.6951C550.257 89.5566 546.702 91.1238 542.122 90.9541C535.538 90.7037 528.938 90.6714 522.354 90.6229C520.755 90.6148 519.05 90.5987 517.556 91.0915C505.503 95.1306 493.49 99.2829 481.583 104.332C482.665 104.437 483.756 104.502 484.83 104.647C498.256 106.448 511.771 107.789 525.093 110.213C535.788 112.152 543.156 119.818 548.891 128.373C555.225 137.825 560.419 148.044 566.082 157.94C566.244 158.214 566.098 158.667 566.098 158.651C560.985 151.114 556.13 143.027 550.321 135.716C546.193 130.522 541.104 125.933 535.845 121.854C528.364 116.054 519.914 116.005 511.473 119.963C501.811 124.495 494.08 131.637 486.607 139.028C464.707 160.686 446.224 185.188 428.104 209.972C388.229 264.526 352.579 321.841 318.012 379.836C312.931 388.359 307.817 396.865 302.187 406.284C306.129 405.541 309.191 405.032 312.212 404.378C359.212 394.183 406.252 384.158 453.179 373.648C470.887 369.681 487.997 363.623 504.517 355.948C523.275 347.232 535.384 332.925 540.934 313.206C546.088 294.884 550.709 276.409 555.54 257.998C555.637 257.643 555.5 257.223 555.524 257.602C498.959 279.891 442.233 302.235 385.507 324.588C385.378 324.354 385.256 324.128 385.127 323.893C386.5 322.989 387.833 322.011 389.255 321.195C426.294 299.876 463.398 278.671 500.381 257.247C518.42 246.802 536.459 236.284 552.438 222.744C563.691 213.212 573.183 202.379 576.253 187.305C576.641 185.382 576.859 183.427 578.151 181.294C579.621 187.846 581.447 194.333 582.497 200.949C586.852 228.375 581.084 254.775 573.345 280.787C568.409 297.364 562.431 313.634 556.679 329.952C550.531 347.409 538.761 359.899 522.386 368.405C502.449 378.77 481.09 385.038 459.537 390.758C413.296 403.029 366.288 411.761 319.337 420.712C311.42 422.223 303.544 424.008 295.571 425.115C291.951 425.616 288.042 425.236 284.431 424.485C233.133 413.854 181.787 403.433 130.627 392.188C108.735 387.373 87.3027 380.668 66.719 371.442C46.4909 362.37 32.4507 348.145 25.1155 326.898C15.7608 299.804 6.61613 272.693 2.06802 244.297C-1.10678 224.449 -0.9856 204.665 4.86312 185.196C5.26704 183.855 5.79213 182.555 5.99409 181.965C8.28027 188.629 10.0333 195.892 13.2 202.476C18.6448 213.794 28.0965 221.823 38.049 229.045C61.8236 246.301 87.7793 259.961 113.234 274.454C139.965 289.673 166.567 305.135 193.21 320.508C194.195 321.074 195.108 321.769 195.819 322.835C139.82 301.072 83.8209 279.309 27.224 257.312C30.9077 271.731 34.3976 286.45 38.4933 300.991C40.8199 309.239 43.9543 317.277 47.0644 325.275C52.4446 339.105 62.2921 348.799 75.5729 355.181C95.1952 364.608 116.029 370.53 137.122 375.255C182.094 385.329 227.204 394.757 272.265 404.434C275.27 405.081 278.299 405.606 282.104 406.341C279.713 402.261 277.693 398.772 275.617 395.306C244.208 342.966 212.816 290.611 178.023 240.412C155.791 208.333 133.147 176.568 106.715 147.729C97.3279 137.485 87.5289 127.67 75.1448 120.989C63.7866 114.866 54.9327 115.803 44.9398 123.97C35.7143 131.507 29.4051 141.379 23.1363 151.283C22.6436 152.067 22.1427 152.842 21.5934 153.699C21.3591 153.4 21.0844 153.174 21.1248 153.093C27.0624 140.386 33.7917 128.236 43.9462 118.259C51.661 110.673 61.6054 108.84 71.5418 107.289C81.4701 105.746 91.5196 105.002 101.391 103.928C101.496 104.09 101.359 103.613 101.084 103.516C89.9362 99.6303 78.982 94.8802 67.543 92.2224C59.3435 90.324 50.4735 90.7926 41.9266 91.043C35.9728 91.2126 31.8529 89.3869 28.8316 84.346C26.0688 79.7333 22.8617 75.3952 20.1393 70.7583C17.1584 65.6689 18.8548 62.7041 24.6712 62.6718C36.1102 62.6153 47.5572 62.6961 58.9961 62.7203C59.4001 62.7203 59.804 62.7445 60.2079 62.7607C69.2395 63.2535 71.6145 66.3313 69.6111 75.1286C69.0537 77.5845 68.1893 79.9757 67.4299 82.5123C79.6848 87.2139 91.9316 91.972 104.259 96.4959C105.14 96.819 107.119 95.7769 107.773 94.8156C117.807 80.2099 127.484 65.3619 137.728 50.9098C142.454 44.2451 148.116 38.2187 153.553 32.0872C167.238 16.6576 184.631 7.96526 204.802 4.75815C215.95 2.98899 227.187 1.7934 238.384 0.36353C247.327 -0.775517 255.72 1.15521 263.912 4.67737C265.883 5.52559 268.258 5.67101 270.455 5.69524C283.493 5.83257 296.532 5.88912 309.57 5.84065C312.196 5.83257 315.104 5.90528 317.398 4.86317C326.616 0.702821 336.124 -0.920928 346.109 0.549332C359.131 2.47198 372.25 3.97455 385.119 6.65656C405.816 10.9704 422.045 22.6598 435.423 38.8165C450.562 57.0978 464.093 76.4535 476.356 97.5057L476.38 97.4976ZM473.771 116.312C461.338 92.8445 448.413 70.3947 432.741 49.6172C427.183 42.2498 419.921 37.5966 410.986 35.2297C388.205 29.2032 364.899 27.1433 341.504 26.4728C314.749 25.7134 287.969 25.5114 261.205 25.6811C234.288 25.8588 207.476 27.6441 180.963 32.8385C167.004 35.569 155.266 41.4904 147.656 53.9391C135.886 73.1818 124.229 92.4971 112.588 111.812C111.586 113.477 111.053 115.423 110.31 117.217C111.053 117.75 111.449 118.138 111.925 118.356C141.355 132.412 170.752 146.517 200.254 160.404C204.002 162.165 206.539 164.475 208.526 168.086C230.992 208.947 253.628 249.718 276.126 290.554C281.377 300.086 286.313 309.797 291.564 319.741C299.836 304.198 307.672 288.914 316.025 273.921C336.011 238.053 356.199 202.298 376.459 166.584C377.752 164.297 380.046 162.157 382.397 160.969C397.851 153.125 413.418 145.523 428.993 137.922C443.711 130.74 458.479 123.671 473.771 116.28V116.312Z" fill="url(#paint0_linear_1_5)"/>
</g>
<defs>
<linearGradient id="paint0_linear_1_5" x1="291.994" y1="0.0176086" x2="291.994" y2="425.342" gradientUnits="userSpaceOnUse">
<stop stop-color="white"/>
<stop offset="1" stop-color="#EFEFEF"/>
</linearGradient>
<clipPath id="clip0_1_5">
<rect width="584" height="425.317" fill="white"/>
</clipPath>
</defs>
</svg>
