<svg width="3578" height="792" viewBox="0 0 3578 792" fill="none" xmlns="http://www.w3.org/2000/svg">
<g clip-path="url(#clip0_18_31)">
<path d="M788.64 387.16C788.76 388.68 788.99 390.63 789.05 392.58C791.62 478.54 767.63 556.48 717.76 626.36C676.77 683.8 624 727.25 559.8 756.6C522.17 773.8 482.63 784.68 441.51 788.96C339.85 799.53 246.3 776.93 162.91 717.23C84.2198 660.89 33.1398 585.22 10.0298 491.04C2.17977 459.07 -1.51023 416.24 0.559766 387.29C1.00977 387.54 1.60977 387.66 1.73977 387.97C10.7198 409.48 26.5498 425.13 46.1598 436.5C57.4698 443.06 62.1398 450.79 64.3298 463.95C78.2898 547.86 120.85 614.76 188.53 665.86C229.08 696.48 274.19 717.29 323.96 727.76C361.42 735.64 399.16 737.13 437.19 732.56C501.88 724.79 559.42 700.09 609.59 658.84C664.61 613.61 703.12 557.25 720.7 487.62C723.74 475.57 725.27 463.12 727.1 450.8C727.54 447.82 728.49 446.14 731.04 444.63C746.58 435.43 761.61 425.44 772.84 411.01C778.69 403.49 783.42 395.11 788.63 387.17L788.64 387.16Z" fill="white"/>
<path d="M394.61 555.24C434.84 472.36 474.53 390.6 514.63 307.99H468.57C468.4 307.66 468.24 307.33 468.07 306.99C517.78 273.66 567.5 240.33 618.52 206.12C575.29 297.21 532.57 387.22 489.56 477.86C507.56 464.1 526.32 452.02 542.31 436.98C565.06 415.58 590.81 401.91 621.36 396.28C632.08 394.31 642.49 390.59 654.36 387.31C653.37 398.52 653.03 409.58 651.26 420.4C649.05 433.91 644.59 446.79 636.36 458.07C629.45 467.54 624.52 469.28 613.3 465.9C602.66 462.7 592.15 458.84 581.33 456.45C562.73 452.34 545.12 456.54 529.1 466.16C513.17 475.73 497.8 486.23 482.36 496.59C480.2 498.04 478.64 500.79 477.46 503.25C452.4 555.55 427.44 607.9 402.45 660.23C399.59 666.22 396.65 672.17 393.47 678.72C392.63 677.35 391.89 676.37 391.39 675.28C364.85 617.05 338.38 558.79 311.65 500.65C309.97 496.99 306.83 493.29 303.39 491.26C287.92 482.16 272.18 473.52 256.4 464.97C234.61 453.16 212.06 452.25 188.9 460.71C182.83 462.93 176.49 464.42 170.36 466.5C163.26 468.91 158.14 466.16 153.74 460.82C144.69 449.83 140.06 436.79 137.75 423.14C135.74 411.24 135.46 399.04 134.35 386.18C143.61 389.11 151.53 391.86 159.59 394.11C169.35 396.83 179.26 399.01 189.05 401.63C205.28 405.97 219.26 414.39 231.86 425.37C243.03 435.11 254.09 445 265.75 454.13C277.4 463.25 289.73 471.5 302.9 480.95C258.87 388.2 215.37 296.58 171.87 204.96C172.21 204.7 172.54 204.44 172.88 204.17C223.28 238.77 273.69 273.38 325.08 308.66H273.43C313.79 390.79 353.95 472.53 394.58 555.21L394.61 555.24ZM222.3 253.56C255.84 292.06 275.25 339.28 302.17 381.87C289.19 353.53 276.22 325.18 262.76 295.8C270.17 296.42 275.85 296.9 282.13 297.43C264.58 278.74 241.88 268.36 222.29 253.56H222.3ZM485 389.67C485.09 389.7 485.18 389.73 485.27 389.75C496.74 369.89 508.15 350 519.7 330.19C532.43 308.37 543.94 285.78 560.28 266.26C562.31 263.84 564.34 261.41 566.43 259.04C568.5 256.69 570.65 254.4 572.76 252.09C553.26 263.79 533.87 275.43 519.59 293.77C522.73 294.44 525.34 295.01 529.01 295.8C514.09 327.62 499.54 358.64 484.98 389.67H485Z" fill="white"/>
<path d="M710.4 157.53C695.27 151.18 681.25 153.9 667.47 161.58C653.06 169.62 641.65 168.32 628.75 158.04C609.62 142.81 591.13 126.66 571.1 112.7C529.02 83.37 482.06 65.75 430.98 60.62C348.6 52.34 273.56 72.69 206.49 121.27C190.08 133.16 174.84 146.66 158.81 159.09C151.71 164.6 143.57 168.07 134.2 166.33C131.81 165.89 129.19 165.18 127.3 163.77C111.83 152.24 95.6798 150.94 78.5698 160.34C85.2498 140.56 154.32 78.21 197.5 52.76C244.45 25.09 295.15 8.07001 349.25 2.53001C498.21 -12.73 617.73 41.34 710.4 157.53ZM526.21 25.87C485.9 10.78 443.85 4.41001 400.95 3.72001C358.06 3.03001 316.32 10.91 275.25 22.87C359.11 4.42001 442.7 3.51001 526.2 25.87H526.21Z" fill="white"/>
<path d="M637.07 466.79C638.92 464.49 640.63 462.53 642.17 460.44C653.81 444.65 659.86 426.68 662.31 407.44C663.19 400.53 663.28 393.5 663.42 386.53C663.48 383.75 664.09 382.01 666.73 380.62C698.1 364.14 708.09 334.3 703.79 301.27C699.9 271.33 687.11 244.56 671.54 219.22C662.16 203.94 651.08 189.71 640.76 175.01C639.72 173.53 638.64 172.09 637.23 170.16C641.03 170.95 644.24 171.64 647.47 172.28C658.43 174.44 667.54 169.74 676.73 164.74C689.36 157.87 702.13 158.75 713.28 167.36C719.85 172.43 725.74 179.1 730.12 186.18C746.18 212.17 758.89 239.84 768.25 268.96C774.16 287.34 780.12 305.76 781.59 325.17C784.63 365.41 773.01 399.32 739.16 423.84C709.78 445.13 677.7 460.03 641.92 466.66C640.94 466.84 639.95 466.99 638.96 467.07C638.52 467.11 638.07 466.94 637.07 466.78V466.79Z" fill="white"/>
<path d="M151.33 169.62C139.92 185.72 127.88 201.44 117.23 218.05C102.61 240.84 91.2902 265.27 85.9802 292.06C83.2402 305.9 82.9902 319.86 86.2302 333.72C91.0102 354.17 102.5 369.62 121.06 379.51C124.57 381.38 125.52 383.47 125.4 387.29C124.78 407.74 128.33 427.47 137.43 445.87C141.08 453.25 145.98 460.01 150.74 467.73C143.71 466.17 136.62 465.06 129.81 463C97.4602 453.25 67.8902 438.23 41.7402 416.58C21.2702 399.64 11.7002 377.4 8.30017 351.73C4.55017 323.48 11.8902 296.92 20.2702 270.51C30.0302 239.76 42.7802 210.18 60.9902 183.62C69.7502 170.85 82.6102 160.46 99.8002 160.6C105.78 160.65 112.52 162.76 117.54 166.03C128.65 173.29 139.63 175.6 151.33 169.6V169.62Z" fill="white"/>
<path d="M338.2 380.92H450.43C431.63 416.67 413.1 451.89 394.05 488.1C375.41 452.32 356.97 416.94 338.2 380.92ZM377.69 397.64C384.97 411.09 392.12 424.31 399.59 438.11C406.83 424.48 413.77 411.39 421.08 397.64H377.69Z" fill="white"/>
<path d="M222.3 253.56C241.89 268.36 264.59 278.74 282.14 297.43C275.86 296.9 270.18 296.42 262.77 295.8C276.22 325.19 289.2 353.53 302.18 381.87C275.26 339.28 255.85 292.05 222.31 253.56H222.3Z" fill="black"/>
<path d="M485 389.67C499.55 358.64 514.1 327.62 529.03 295.8C525.36 295.01 522.74 294.45 519.61 293.77C533.88 275.43 553.27 263.79 572.78 252.09C570.67 254.4 568.52 256.69 566.45 259.04C564.36 261.41 562.33 263.84 560.3 266.26C543.95 285.78 532.44 308.37 519.72 330.19C508.17 350 496.76 369.89 485.29 389.75C485.2 389.72 485.11 389.69 485.02 389.67H485Z" fill="black"/>
<path d="M526.21 25.87C442.7 3.51 359.12 4.42 275.26 22.87C316.32 10.91 358.06 3.03 400.96 3.72C443.85 4.41 485.9 10.78 526.22 25.87H526.21Z" fill="black"/>
<path d="M377.69 397.64H421.08C413.78 411.4 406.83 424.49 399.59 438.11C392.12 424.31 384.97 411.09 377.69 397.64Z" fill="white"/>
</g>
<path d="M3388.81 529.409H3240.78L3304.69 433.818H3415.02C3428.86 433.818 3440.15 429.448 3448.89 420.709C3457.63 411.969 3462 400.498 3462 386.296C3462 371.73 3457.63 360.077 3448.89 351.337C3440.15 342.597 3428.86 338.227 3415.02 338.227H3229.3V625H3125.52V242.636H3423.76C3445.25 242.636 3464.55 245.732 3481.67 251.922C3499.14 258.113 3514.08 267.217 3526.46 279.234C3539.2 291.251 3548.85 305.999 3555.41 323.479C3562.33 340.594 3565.79 360.259 3565.79 382.472C3565.79 414.154 3558.87 439.463 3545.03 458.399C3531.55 476.971 3512.25 489.898 3487.13 497.181L3577.26 625H3455.45L3388.81 529.409Z" fill="white"/>
<path d="M2747.95 302.722C2758.15 281.237 2773.44 264.121 2793.83 251.376C2814.23 238.266 2836.26 231.712 2859.93 231.712C2884.33 231.712 2906.72 238.266 2927.11 251.376C2947.51 264.121 2962.8 281.237 2973 302.722L3075.14 521.216C3089.71 552.533 3090.98 577.66 3078.97 596.596C3066.95 615.532 3043.64 625 3009.05 625H2794.38L2855.56 529.409H2964.26L2860.47 305.999L2711.9 625H2597.19L2747.95 302.722Z" fill="white"/>
<path d="M2359.84 625C2331.43 625 2305.58 620.448 2282.27 611.344C2258.97 602.24 2238.94 589.495 2222.19 573.108C2205.8 556.357 2193.05 536.328 2183.95 513.022C2174.85 489.716 2170.29 463.861 2170.29 435.457C2170.29 406.324 2174.66 379.923 2183.4 356.253C2192.14 332.583 2204.52 312.372 2220.55 295.621C2236.93 278.87 2256.42 265.942 2278.99 256.838C2301.57 247.37 2326.7 242.636 2354.37 242.636H2613.29L2552.11 338.227H2365.85C2337.44 338.227 2315.05 346.967 2298.66 364.446C2282.27 381.562 2274.08 404.322 2274.08 432.726C2274.08 447.292 2276.08 460.584 2280.09 472.601C2284.46 484.254 2290.65 494.45 2298.66 503.19C2306.67 511.565 2316.32 518.12 2327.61 522.854C2338.9 527.224 2351.64 529.409 2365.85 529.409H2585.98L2524.8 625H2359.84Z" fill="white"/>
<path d="M2017.58 242.636H2121.37V625H2017.58V242.636Z" fill="white"/>
<path d="M1720.25 625C1691.85 625 1665.99 620.448 1642.69 611.344C1619.38 602.24 1599.35 589.495 1582.6 573.108C1566.22 556.357 1553.47 536.328 1544.37 513.022C1535.26 489.716 1530.71 463.861 1530.71 435.457C1530.71 406.324 1535.08 379.923 1543.82 356.253C1552.56 332.583 1564.94 312.372 1580.96 295.621C1597.35 278.87 1616.83 265.942 1639.41 256.838C1661.99 247.37 1687.11 242.636 1714.79 242.636H1973.71L1912.53 338.227H1726.26C1697.86 338.227 1675.46 346.967 1659.07 364.446C1642.69 381.562 1634.49 404.322 1634.49 432.726C1634.49 447.292 1636.5 460.584 1640.5 472.601C1644.87 484.254 1651.06 494.45 1659.07 503.19C1667.09 511.565 1676.74 518.12 1688.03 522.854C1699.31 527.224 1712.06 529.409 1726.26 529.409H1946.39L1885.22 625H1720.25Z" fill="white"/>
<path d="M1378 242.636H1481.78V625H1378V242.636Z" fill="white"/>
<path d="M1202.6 564.368C1193.13 586.217 1178.93 603.697 1159.99 616.806C1141.42 629.552 1120.3 635.925 1096.63 635.925H1095.54C1071.87 635.925 1050.56 629.552 1031.63 616.806C1013.06 603.697 999.035 586.217 989.567 564.368L847 242.636H960.617L1096.08 561.637L1231.55 242.636H1345.17L1202.6 564.368Z" fill="white"/>
<defs>
<clipPath id="clip0_18_31">
<rect width="789.24" height="791.47" fill="white"/>
</clipPath>
</defs>
</svg>
